<svg xmlns="http://www.w3.org/2000/svg" viewBox="0 0 595.28 841.88" width="595.28pt" height="841.88pt" font-family="'HCR Batang','함초롬바탕','Hancom Batang',AppleMyungjo,'Noto Serif CJK KR',serif" xml:space="preserve">
<defs><clipPath id="pgclip0"><rect x="0" y="0" width="595.28" height="841.88"/></clipPath></defs>
<g data-page="1" transform="translate(0 0)"><rect width="595.28" height="841.88" fill="white" stroke="#c9c7c4" stroke-width="0.75"/><g clip-path="url(#pgclip0)">
<text x="68.2" y="102.3" font-size="12" font-family="'새굴림','Malgun Gothic','HCR Dotum','Noto Sans KR',sans-serif" textLength="37.56" lengthAdjust="spacing">[참고1]</text>
<text x="56.69" y="132.14" font-size="11" font-family="'한양중고딕','Malgun Gothic','HCR Dotum','Noto Sans KR',sans-serif" textLength="50.49" lengthAdjust="spacing" font-weight="bold">&lt; 별지 1&gt;</text>
<text x="146.69" y="158.91" font-size="20" font-family="'휴먼명조','HCR Batang','Batang','Noto Serif KR',serif" textLength="283.5" lengthAdjust="spacing" font-weight="bold">원천징수 동의〔신규, 변경, 철회〕서</text>
<text x="75.61" y="202.66" font-size="13" font-family="'Dotum','돋움','Malgun Gothic','HCR Dotum','Noto Sans KR',sans-serif">공</text>
<text x="75.61" y="219.58" font-size="13" font-family="'Dotum','돋움','Malgun Gothic','HCR Dotum','Noto Sans KR',sans-serif">무</text>
<text x="75.61" y="236.5" font-size="13" font-family="'Dotum','돋움','Malgun Gothic','HCR Dotum','Noto Sans KR',sans-serif">원</text>
<text x="107.31" y="206.02" font-size="13" font-family="'Dotum','돋움','Malgun Gothic','HCR Dotum','Noto Sans KR',sans-serif" textLength="31.72" lengthAdjust="spacing">소 속</text>
<text x="317.69" y="206.02" font-size="13" font-family="'Dotum','돋움','Malgun Gothic','HCR Dotum','Noto Sans KR',sans-serif" textLength="31.72" lengthAdjust="spacing">직 급</text>
<text x="107.31" y="233.14" font-size="13" font-family="'Dotum','돋움','Malgun Gothic','HCR Dotum','Noto Sans KR',sans-serif" textLength="31.72" lengthAdjust="spacing">성 명</text>
<text x="308.33" y="233.14" font-size="13" font-family="'Dotum','돋움','Malgun Gothic','HCR Dotum','Noto Sans KR',sans-serif" textLength="50.44" lengthAdjust="spacing">생년월일</text>
<text x="75.61" y="254.62" font-size="13" font-family="'Dotum','돋움','Malgun Gothic','HCR Dotum','Noto Sans KR',sans-serif">원</text>
<text x="75.61" y="271.54" font-size="13" font-family="'Dotum','돋움','Malgun Gothic','HCR Dotum','Noto Sans KR',sans-serif">천</text>
<text x="75.61" y="288.46" font-size="13" font-family="'Dotum','돋움','Malgun Gothic','HCR Dotum','Noto Sans KR',sans-serif">징</text>
<text x="75.61" y="305.38" font-size="13" font-family="'Dotum','돋움','Malgun Gothic','HCR Dotum','Noto Sans KR',sans-serif">수</text>
<text x="75.61" y="322.3" font-size="13" font-family="'Dotum','돋움','Malgun Gothic','HCR Dotum','Noto Sans KR',sans-serif">동</text>
<text x="75.61" y="339.22" font-size="13" font-family="'Dotum','돋움','Malgun Gothic','HCR Dotum','Noto Sans KR',sans-serif">의</text>
<text x="75.61" y="356.14" font-size="13" font-family="'Dotum','돋움','Malgun Gothic','HCR Dotum','Noto Sans KR',sans-serif">사</text>
<text x="75.61" y="373.06" font-size="13" font-family="'Dotum','돋움','Malgun Gothic','HCR Dotum','Noto Sans KR',sans-serif">항</text>
<text x="110.56" y="261.47" font-size="13" font-family="'Dotum','돋움','Malgun Gothic','HCR Dotum','Noto Sans KR',sans-serif" textLength="25.22" lengthAdjust="spacing">구분</text>
<text x="182.6" y="261.47" font-size="13" font-family="'Dotum','돋움','Malgun Gothic','HCR Dotum','Noto Sans KR',sans-serif" textLength="50.44" lengthAdjust="spacing">동의사항</text>
<text x="279.64" y="261.47" font-size="13" font-family="'Dotum','돋움','Malgun Gothic','HCR Dotum','Noto Sans KR',sans-serif" textLength="75.53" lengthAdjust="spacing">금액(단위:원)</text>
<text x="392.85" y="261.47" font-size="13" font-family="'Dotum','돋움','Malgun Gothic','HCR Dotum','Noto Sans KR',sans-serif" textLength="25.22" lengthAdjust="spacing">기간</text>
<text x="448.28" y="261.47" font-size="13" font-family="'Dotum','돋움','Malgun Gothic','HCR Dotum','Noto Sans KR',sans-serif" textLength="69.55" lengthAdjust="spacing">동의사유 등</text>
<text x="115.24" y="397.14" font-size="13" font-family="'Dotum','돋움','Malgun Gothic','HCR Dotum','Noto Sans KR',sans-serif" textLength="364.78" lengthAdjust="spacing">본인은 「공무원보수규정」 제19조의2제1항제5호의 규정에 따라</text>
<text x="77.77" y="420.54" font-size="13" font-family="'Dotum','돋움','Malgun Gothic','HCR Dotum','Noto Sans KR',sans-serif" textLength="401.09" lengthAdjust="spacing">상기 내역이 매월 본인의 보수에서 원천징수 되는 것을 동의(또는 변경, 철회)</text>
<text x="478.86" y="420.54" font-size="13" font-family="'Dotum','돋움','Malgun Gothic','HCR Dotum','Noto Sans KR',sans-serif" textLength="38.63" lengthAdjust="spacing">합니다.</text>
<text x="345.24" y="465.54" font-size="13" font-family="'Dotum','돋움','Malgun Gothic','HCR Dotum','Noto Sans KR',sans-serif" textLength="40.56" lengthAdjust="spacing">202 년</text>
<text x="405.3" y="465.54" font-size="13" font-family="'Dotum','돋움','Malgun Gothic','HCR Dotum','Noto Sans KR',sans-serif">월</text>
<text x="437.41" y="465.54" font-size="13" font-family="'Dotum','돋움','Malgun Gothic','HCR Dotum','Noto Sans KR',sans-serif">일</text>
<text x="313.39" y="488.94" font-size="13" font-family="'Dotum','돋움','Malgun Gothic','HCR Dotum','Noto Sans KR',sans-serif" textLength="37.83" lengthAdjust="spacing" font-weight="bold">신청인</text>
<text x="364.22" y="488.94" font-size="13" font-family="'Dotum','돋움','Malgun Gothic','HCR Dotum','Noto Sans KR',sans-serif" textLength="25.22" lengthAdjust="spacing" font-weight="bold">성명</text>
<text x="447.94" y="488.94" font-size="13" font-family="'Dotum','돋움','Malgun Gothic','HCR Dotum','Noto Sans KR',sans-serif" textLength="33.93" lengthAdjust="spacing" font-weight="bold">( 인 )</text>
<text x="364.09" y="509.79" font-size="10" font-family="'Dotum','돋움','Malgun Gothic','HCR Dotum','Noto Sans KR',sans-serif" textLength="12.7" lengthAdjust="spacing">※ </text>
<text x="376.79" y="509.79" font-size="10" font-family="'Dotum','돋움','Malgun Gothic','HCR Dotum','Noto Sans KR',sans-serif" textLength="118.4" lengthAdjust="spacing" font-weight="bold">(인)은 자필 서명으로 한다</text>
<text x="495.19" y="509.79" font-size="10" font-family="'Dotum','돋움','Malgun Gothic','HCR Dotum','Noto Sans KR',sans-serif">.</text>
<text x="393.27" y="574.52" font-size="15" font-family="'Dotum','돋움','Malgun Gothic','HCR Dotum','Noto Sans KR',sans-serif" textLength="131.4" lengthAdjust="spacing" font-weight="bold">○○○ 지출관 귀하</text>
<text x="110.34" y="596.74" font-size="9" font-family="'Dotum','돋움','Malgun Gothic','HCR Dotum','Noto Sans KR',sans-serif" textLength="414.33" lengthAdjust="spacing">※ ○○○은「회계관계 직원 등의 책임에 관한 법률」제2조제1호가목에 따른 지출관이 소속된 기관을 말한다.</text>
<line x1="69.18" y1="187.91" x2="94.62" y2="187.91" stroke="#000000" stroke-width="1.13"/>
<line x1="69.18" y1="242.15" x2="94.62" y2="242.15" stroke="#000000" stroke-width="0.34"/>
<line x1="69.18" y1="187.91" x2="69.18" y2="242.15" stroke="#000000" stroke-width="1.13"/>
<line x1="94.62" y1="187.91" x2="94.62" y2="242.15" stroke="#000000" stroke-width="0.34"/>
<line x1="94.62" y1="187.91" x2="151.71" y2="187.91" stroke="#000000" stroke-width="1.13"/>
<line x1="94.62" y1="215.03" x2="151.71" y2="215.03" stroke="#000000" stroke-width="0.34"/>
<line x1="94.62" y1="187.91" x2="94.62" y2="215.03" stroke="#000000" stroke-width="0.34"/>
<line x1="151.71" y1="187.91" x2="151.71" y2="215.03" stroke="#000000" stroke-width="0.34"/>
<line x1="151.71" y1="187.91" x2="296.2" y2="187.91" stroke="#000000" stroke-width="1.13"/>
<line x1="151.71" y1="215.03" x2="296.2" y2="215.03" stroke="#000000" stroke-width="0.34"/>
<line x1="151.71" y1="187.91" x2="151.71" y2="215.03" stroke="#000000" stroke-width="0.34"/>
<line x1="296.2" y1="187.91" x2="296.2" y2="215.03" stroke="#000000" stroke-width="0.34"/>
<line x1="296.2" y1="187.91" x2="370.89" y2="187.91" stroke="#000000" stroke-width="1.13"/>
<line x1="296.2" y1="215.03" x2="370.89" y2="215.03" stroke="#000000" stroke-width="0.34"/>
<line x1="296.2" y1="187.91" x2="296.2" y2="215.03" stroke="#000000" stroke-width="0.34"/>
<line x1="370.89" y1="187.91" x2="370.89" y2="215.03" stroke="#000000" stroke-width="0.34"/>
<line x1="370.89" y1="187.91" x2="526.08" y2="187.91" stroke="#000000" stroke-width="1.13"/>
<line x1="370.89" y1="215.03" x2="526.08" y2="215.03" stroke="#000000" stroke-width="0.34"/>
<line x1="370.89" y1="187.91" x2="370.89" y2="215.03" stroke="#000000" stroke-width="0.34"/>
<line x1="526.08" y1="187.91" x2="526.08" y2="215.03" stroke="#000000" stroke-width="1.13"/>
<line x1="94.62" y1="215.03" x2="151.71" y2="215.03" stroke="#000000" stroke-width="0.34"/>
<line x1="94.62" y1="242.15" x2="151.71" y2="242.15" stroke="#000000" stroke-width="0.34"/>
<line x1="94.62" y1="215.03" x2="94.62" y2="242.15" stroke="#000000" stroke-width="0.34"/>
<line x1="151.71" y1="215.03" x2="151.71" y2="242.15" stroke="#000000" stroke-width="0.34"/>
<line x1="151.71" y1="215.03" x2="296.2" y2="215.03" stroke="#000000" stroke-width="0.34"/>
<line x1="151.71" y1="242.15" x2="296.2" y2="242.15" stroke="#000000" stroke-width="0.34"/>
<line x1="151.71" y1="215.03" x2="151.71" y2="242.15" stroke="#000000" stroke-width="0.34"/>
<line x1="296.2" y1="215.03" x2="296.2" y2="242.15" stroke="#000000" stroke-width="0.34"/>
<line x1="296.2" y1="215.03" x2="370.89" y2="215.03" stroke="#000000" stroke-width="0.34"/>
<line x1="296.2" y1="242.15" x2="370.89" y2="242.15" stroke="#000000" stroke-width="0.34"/>
<line x1="296.2" y1="215.03" x2="296.2" y2="242.15" stroke="#000000" stroke-width="0.34"/>
<line x1="370.89" y1="215.03" x2="370.89" y2="242.15" stroke="#000000" stroke-width="0.34"/>
<line x1="370.89" y1="215.03" x2="526.08" y2="215.03" stroke="#000000" stroke-width="0.34"/>
<line x1="370.89" y1="242.15" x2="526.08" y2="242.15" stroke="#000000" stroke-width="0.34"/>
<line x1="370.89" y1="215.03" x2="370.89" y2="242.15" stroke="#000000" stroke-width="0.34"/>
<line x1="526.08" y1="215.03" x2="526.08" y2="242.15" stroke="#000000" stroke-width="1.13"/>
<line x1="69.18" y1="242.15" x2="94.62" y2="242.15" stroke="#000000" stroke-width="0.34"/>
<line x1="69.18" y1="376.43" x2="94.62" y2="376.43" stroke="#000000" stroke-width="0.34"/>
<line x1="69.18" y1="242.15" x2="69.18" y2="376.43" stroke="#000000" stroke-width="1.13"/>
<line x1="94.62" y1="242.15" x2="94.62" y2="376.43" stroke="#000000" stroke-width="0.34"/>
<line x1="94.62" y1="242.15" x2="151.71" y2="242.15" stroke="#000000" stroke-width="0.34"/>
<line x1="94.62" y1="271.68" x2="151.71" y2="271.68" stroke="#000000" stroke-width="0.34"/>
<line x1="94.62" y1="242.15" x2="94.62" y2="271.68" stroke="#000000" stroke-width="0.34"/>
<line x1="151.71" y1="242.15" x2="151.71" y2="271.68" stroke="#000000" stroke-width="0.34"/>
<line x1="151.71" y1="242.15" x2="263.91" y2="242.15" stroke="#000000" stroke-width="0.34"/>
<line x1="151.71" y1="271.68" x2="263.91" y2="271.68" stroke="#000000" stroke-width="0.34"/>
<line x1="151.71" y1="242.15" x2="151.71" y2="271.68" stroke="#000000" stroke-width="0.34"/>
<line x1="263.91" y1="242.15" x2="263.91" y2="271.68" stroke="#000000" stroke-width="0.34"/>
<line x1="263.91" y1="242.15" x2="370.89" y2="242.15" stroke="#000000" stroke-width="0.34"/>
<line x1="263.91" y1="271.68" x2="370.89" y2="271.68" stroke="#000000" stroke-width="0.34"/>
<line x1="263.91" y1="242.15" x2="263.91" y2="271.68" stroke="#000000" stroke-width="0.34"/>
<line x1="370.89" y1="242.15" x2="370.89" y2="271.68" stroke="#000000" stroke-width="0.34"/>
<line x1="370.89" y1="242.15" x2="440.02" y2="242.15" stroke="#000000" stroke-width="0.34"/>
<line x1="370.89" y1="271.68" x2="440.02" y2="271.68" stroke="#000000" stroke-width="0.34"/>
<line x1="370.89" y1="242.15" x2="370.89" y2="271.68" stroke="#000000" stroke-width="0.34"/>
<line x1="440.02" y1="242.15" x2="440.02" y2="271.68" stroke="#000000" stroke-width="0.34"/>
<line x1="440.02" y1="242.15" x2="526.08" y2="242.15" stroke="#000000" stroke-width="0.34"/>
<line x1="440.02" y1="271.68" x2="526.08" y2="271.68" stroke="#000000" stroke-width="0.34"/>
<line x1="440.02" y1="242.15" x2="440.02" y2="271.68" stroke="#000000" stroke-width="0.34"/>
<line x1="526.08" y1="242.15" x2="526.08" y2="271.68" stroke="#000000" stroke-width="1.13"/>
<line x1="94.62" y1="271.68" x2="151.71" y2="271.68" stroke="#000000" stroke-width="0.34"/>
<line x1="94.62" y1="292.63" x2="151.71" y2="292.63" stroke="#000000" stroke-width="0.34"/>
<line x1="94.62" y1="271.68" x2="94.62" y2="292.63" stroke="#000000" stroke-width="0.34"/>
<line x1="151.71" y1="271.68" x2="151.71" y2="292.63" stroke="#000000" stroke-width="0.34"/>
<line x1="151.71" y1="271.68" x2="263.91" y2="271.68" stroke="#000000" stroke-width="0.34"/>
<line x1="151.71" y1="292.63" x2="263.91" y2="292.63" stroke="#000000" stroke-width="0.34"/>
<line x1="151.71" y1="271.68" x2="151.71" y2="292.63" stroke="#000000" stroke-width="0.34"/>
<line x1="263.91" y1="271.68" x2="263.91" y2="292.63" stroke="#000000" stroke-width="0.34"/>
<line x1="263.91" y1="271.68" x2="370.89" y2="271.68" stroke="#000000" stroke-width="0.34"/>
<line x1="263.91" y1="292.63" x2="370.89" y2="292.63" stroke="#000000" stroke-width="0.34"/>
<line x1="263.91" y1="271.68" x2="263.91" y2="292.63" stroke="#000000" stroke-width="0.34"/>
<line x1="370.89" y1="271.68" x2="370.89" y2="292.63" stroke="#000000" stroke-width="0.34"/>
<line x1="370.89" y1="271.68" x2="440.02" y2="271.68" stroke="#000000" stroke-width="0.34"/>
<line x1="370.89" y1="292.63" x2="440.02" y2="292.63" stroke="#000000" stroke-width="0.34"/>
<line x1="370.89" y1="271.68" x2="370.89" y2="292.63" stroke="#000000" stroke-width="0.34"/>
<line x1="440.02" y1="271.68" x2="440.02" y2="292.63" stroke="#000000" stroke-width="0.34"/>
<line x1="440.02" y1="271.68" x2="526.08" y2="271.68" stroke="#000000" stroke-width="0.34"/>
<line x1="440.02" y1="292.63" x2="526.08" y2="292.63" stroke="#000000" stroke-width="0.34"/>
<line x1="440.02" y1="271.68" x2="440.02" y2="292.63" stroke="#000000" stroke-width="0.34"/>
<line x1="526.08" y1="271.68" x2="526.08" y2="292.63" stroke="#000000" stroke-width="1.13"/>
<line x1="94.62" y1="292.63" x2="151.71" y2="292.63" stroke="#000000" stroke-width="0.34"/>
<line x1="94.62" y1="313.58" x2="151.71" y2="313.58" stroke="#000000" stroke-width="0.34"/>
<line x1="94.62" y1="292.63" x2="94.62" y2="313.58" stroke="#000000" stroke-width="0.34"/>
<line x1="151.71" y1="292.63" x2="151.71" y2="313.58" stroke="#000000" stroke-width="0.34"/>
<line x1="151.71" y1="292.63" x2="263.91" y2="292.63" stroke="#000000" stroke-width="0.34"/>
<line x1="151.71" y1="313.58" x2="263.91" y2="313.58" stroke="#000000" stroke-width="0.34"/>
<line x1="151.71" y1="292.63" x2="151.71" y2="313.58" stroke="#000000" stroke-width="0.34"/>
<line x1="263.91" y1="292.63" x2="263.91" y2="313.58" stroke="#000000" stroke-width="0.34"/>
<line x1="263.91" y1="292.63" x2="370.89" y2="292.63" stroke="#000000" stroke-width="0.34"/>
<line x1="263.91" y1="313.58" x2="370.89" y2="313.58" stroke="#000000" stroke-width="0.34"/>
<line x1="263.91" y1="292.63" x2="263.91" y2="313.58" stroke="#000000" stroke-width="0.34"/>
<line x1="370.89" y1="292.63" x2="370.89" y2="313.58" stroke="#000000" stroke-width="0.34"/>
<line x1="370.89" y1="292.63" x2="440.02" y2="292.63" stroke="#000000" stroke-width="0.34"/>
<line x1="370.89" y1="313.58" x2="440.02" y2="313.58" stroke="#000000" stroke-width="0.34"/>
<line x1="370.89" y1="292.63" x2="370.89" y2="313.58" stroke="#000000" stroke-width="0.34"/>
<line x1="440.02" y1="292.63" x2="440.02" y2="313.58" stroke="#000000" stroke-width="0.34"/>
<line x1="440.02" y1="292.63" x2="526.08" y2="292.63" stroke="#000000" stroke-width="0.34"/>
<line x1="440.02" y1="313.58" x2="526.08" y2="313.58" stroke="#000000" stroke-width="0.34"/>
<line x1="440.02" y1="292.63" x2="440.02" y2="313.58" stroke="#000000" stroke-width="0.34"/>
<line x1="526.08" y1="292.63" x2="526.08" y2="313.58" stroke="#000000" stroke-width="1.13"/>
<line x1="94.62" y1="313.58" x2="151.71" y2="313.58" stroke="#000000" stroke-width="0.34"/>
<line x1="94.62" y1="334.53" x2="151.71" y2="334.53" stroke="#000000" stroke-width="0.34"/>
<line x1="94.62" y1="313.58" x2="94.62" y2="334.53" stroke="#000000" stroke-width="0.34"/>
<line x1="151.71" y1="313.58" x2="151.71" y2="334.53" stroke="#000000" stroke-width="0.34"/>
<line x1="151.71" y1="313.58" x2="263.91" y2="313.58" stroke="#000000" stroke-width="0.34"/>
<line x1="151.71" y1="334.53" x2="263.91" y2="334.53" stroke="#000000" stroke-width="0.34"/>
<line x1="151.71" y1="313.58" x2="151.71" y2="334.53" stroke="#000000" stroke-width="0.34"/>
<line x1="263.91" y1="313.58" x2="263.91" y2="334.53" stroke="#000000" stroke-width="0.34"/>
<line x1="263.91" y1="313.58" x2="370.89" y2="313.58" stroke="#000000" stroke-width="0.34"/>
<line x1="263.91" y1="334.53" x2="370.89" y2="334.53" stroke="#000000" stroke-width="0.34"/>
<line x1="263.91" y1="313.58" x2="263.91" y2="334.53" stroke="#000000" stroke-width="0.34"/>
<line x1="370.89" y1="313.58" x2="370.89" y2="334.53" stroke="#000000" stroke-width="0.34"/>
<line x1="370.89" y1="313.58" x2="440.02" y2="313.58" stroke="#000000" stroke-width="0.34"/>
<line x1="370.89" y1="334.53" x2="440.02" y2="334.53" stroke="#000000" stroke-width="0.34"/>
<line x1="370.89" y1="313.58" x2="370.89" y2="334.53" stroke="#000000" stroke-width="0.34"/>
<line x1="440.02" y1="313.58" x2="440.02" y2="334.53" stroke="#000000" stroke-width="0.34"/>
<line x1="440.02" y1="313.58" x2="526.08" y2="313.58" stroke="#000000" stroke-width="0.34"/>
<line x1="440.02" y1="334.53" x2="526.08" y2="334.53" stroke="#000000" stroke-width="0.34"/>
<line x1="440.02" y1="313.58" x2="440.02" y2="334.53" stroke="#000000" stroke-width="0.34"/>
<line x1="526.08" y1="313.58" x2="526.08" y2="334.53" stroke="#000000" stroke-width="1.13"/>
<line x1="94.62" y1="334.53" x2="151.71" y2="334.53" stroke="#000000" stroke-width="0.34"/>
<line x1="94.62" y1="355.48" x2="151.71" y2="355.48" stroke="#000000" stroke-width="0.34"/>
<line x1="94.62" y1="334.53" x2="94.62" y2="355.48" stroke="#000000" stroke-width="0.34"/>
<line x1="151.71" y1="334.53" x2="151.71" y2="355.48" stroke="#000000" stroke-width="0.34"/>
<line x1="151.71" y1="334.53" x2="263.91" y2="334.53" stroke="#000000" stroke-width="0.34"/>
<line x1="151.71" y1="355.48" x2="263.91" y2="355.48" stroke="#000000" stroke-width="0.34"/>
<line x1="151.71" y1="334.53" x2="151.71" y2="355.48" stroke="#000000" stroke-width="0.34"/>
<line x1="263.91" y1="334.53" x2="263.91" y2="355.48" stroke="#000000" stroke-width="0.34"/>
<line x1="263.91" y1="334.53" x2="370.89" y2="334.53" stroke="#000000" stroke-width="0.34"/>
<line x1="263.91" y1="355.48" x2="370.89" y2="355.48" stroke="#000000" stroke-width="0.34"/>
<line x1="263.91" y1="334.53" x2="263.91" y2="355.48" stroke="#000000" stroke-width="0.34"/>
<line x1="370.89" y1="334.53" x2="370.89" y2="355.48" stroke="#000000" stroke-width="0.34"/>
<line x1="370.89" y1="334.53" x2="440.02" y2="334.53" stroke="#000000" stroke-width="0.34"/>
<line x1="370.89" y1="355.48" x2="440.02" y2="355.48" stroke="#000000" stroke-width="0.34"/>
<line x1="370.89" y1="334.53" x2="370.89" y2="355.48" stroke="#000000" stroke-width="0.34"/>
<line x1="440.02" y1="334.53" x2="440.02" y2="355.48" stroke="#000000" stroke-width="0.34"/>
<line x1="440.02" y1="334.53" x2="526.08" y2="334.53" stroke="#000000" stroke-width="0.34"/>
<line x1="440.02" y1="355.48" x2="526.08" y2="355.48" stroke="#000000" stroke-width="0.34"/>
<line x1="440.02" y1="334.53" x2="440.02" y2="355.48" stroke="#000000" stroke-width="0.34"/>
<line x1="526.08" y1="334.53" x2="526.08" y2="355.48" stroke="#000000" stroke-width="1.13"/>
<line x1="94.62" y1="355.48" x2="151.71" y2="355.48" stroke="#000000" stroke-width="0.34"/>
<line x1="94.62" y1="376.43" x2="151.71" y2="376.43" stroke="#000000" stroke-width="0.34"/>
<line x1="94.62" y1="355.48" x2="94.62" y2="376.43" stroke="#000000" stroke-width="0.34"/>
<line x1="151.71" y1="355.48" x2="151.71" y2="376.43" stroke="#000000" stroke-width="0.34"/>
<line x1="151.71" y1="355.48" x2="263.91" y2="355.48" stroke="#000000" stroke-width="0.34"/>
<line x1="151.71" y1="376.43" x2="263.91" y2="376.43" stroke="#000000" stroke-width="0.34"/>
<line x1="151.71" y1="355.48" x2="151.71" y2="376.43" stroke="#000000" stroke-width="0.34"/>
<line x1="263.91" y1="355.48" x2="263.91" y2="376.43" stroke="#000000" stroke-width="0.34"/>
<line x1="263.91" y1="355.48" x2="370.89" y2="355.48" stroke="#000000" stroke-width="0.34"/>
<line x1="263.91" y1="376.43" x2="370.89" y2="376.43" stroke="#000000" stroke-width="0.34"/>
<line x1="263.91" y1="355.48" x2="263.91" y2="376.43" stroke="#000000" stroke-width="0.34"/>
<line x1="370.89" y1="355.48" x2="370.89" y2="376.43" stroke="#000000" stroke-width="0.34"/>
<line x1="370.89" y1="355.48" x2="440.02" y2="355.48" stroke="#000000" stroke-width="0.34"/>
<line x1="370.89" y1="376.43" x2="440.02" y2="376.43" stroke="#000000" stroke-width="0.34"/>
<line x1="370.89" y1="355.48" x2="370.89" y2="376.43" stroke="#000000" stroke-width="0.34"/>
<line x1="440.02" y1="355.48" x2="440.02" y2="376.43" stroke="#000000" stroke-width="0.34"/>
<line x1="440.02" y1="355.48" x2="526.08" y2="355.48" stroke="#000000" stroke-width="0.34"/>
<line x1="440.02" y1="376.43" x2="526.08" y2="376.43" stroke="#000000" stroke-width="0.34"/>
<line x1="440.02" y1="355.48" x2="440.02" y2="376.43" stroke="#000000" stroke-width="0.34"/>
<line x1="526.08" y1="355.48" x2="526.08" y2="376.43" stroke="#000000" stroke-width="1.13"/>
<line x1="69.18" y1="376.43" x2="526.08" y2="376.43" stroke="#000000" stroke-width="0.34"/>
<line x1="69.18" y1="376.43" x2="69.18" y2="520.94" stroke="#000000" stroke-width="1.13"/>
<line x1="526.08" y1="376.43" x2="526.08" y2="520.94" stroke="#000000" stroke-width="1.13"/>
<line x1="69.18" y1="623.32" x2="526.08" y2="623.32" stroke="#000000" stroke-width="1.13"/>
<line x1="69.18" y1="520.94" x2="69.18" y2="623.32" stroke="#000000" stroke-width="1.13"/>
<line x1="526.08" y1="520.94" x2="526.08" y2="623.32" stroke="#000000" stroke-width="1.13"/>
</g></g>
</svg>